<svg width="290" height="183" fill="none" xmlns="http://www.w3.org/2000/svg"><g clip-path="url(#clip0)"><path d="M87.208 130.741c0-7.938-10.003-4.98-10.003-11.017 0-1.721.934-2.868 2.41-2.868 2.802 0 2.17 4.981 5.002 4.981 1.295 0 2.048-.876 2.048-2.174 0-1.931-2.29-3.894-6.176-4.226v-1.781c0-.362-.211-.603-.512-.603h-.754c-.3 0-.512.241-.512.603v1.781c-3.796.272-6.387 2.717-6.387 6.007 0 7.577 10.123 5.675 10.123 10.837 0 1.932-1.145 3.109-2.681 3.109-2.772 0-2.652-5.101-5.785-5.101-1.025 0-1.959.724-1.959 2.203 0 1.811 2.32 4.136 6.478 4.468v2.867c0 .393.181.634.482.634h.784c.301 0 .482-.241.482-.634v-2.867c4.278-.272 6.96-2.838 6.96-6.219zm9.713-15.696c-4.399 0-7.653 2.807-7.653 6.882 0 4.951 3.375 7.064 6.96 7.064 1.928 0 3.405-.604 4.339-1.691-.151 4.649-1.175 7.969-3.586 7.969-2.832 0-2.048-5.131-5.182-5.131-1.205 0-2.2.785-2.2 2.143 0 2.445 2.983 4.799 7.081 4.799 5.815 0 8.557-4.769 8.557-11.44 0-6.339-3.375-10.595-8.316-10.595zm.573 12.135c-2.44 0-3.857-3.683-3.857-6.762 0-2.264 1.055-3.562 2.651-3.562 2.562 0 3.887 3.351 4.219 7.124-.061 1.902-1.145 3.2-3.013 3.2zm18.937-4.347c-1.747 0-3.314.604-4.399 1.69.272-5.101 1.808-7.667 3.857-7.667 2.742 0 1.898 5.132 5.212 5.132 1.175 0 2.17-.634 2.17-2.144 0-2.263-2.501-4.799-7.081-4.799-5.815 0-8.798 5.282-8.798 11.44 0 6.339 3.586 10.595 8.316 10.595 4.248 0 7.683-2.777 7.683-6.912 0-5.041-3.374-7.335-6.96-7.335zm-.18 12.436c-2.411 0-3.857-3.23-4.189-7.425.091-1.751 1.296-3.23 3.104-3.23 2.44 0 3.826 3.743 3.826 7.003 0 2.294-1.084 3.652-2.741 3.652zm17.126-20.224c-4.399 0-7.653 2.807-7.653 6.882 0 4.951 3.375 7.064 6.96 7.064 1.929 0 3.405-.604 4.339-1.691-.151 4.649-1.175 7.969-3.585 7.969-2.833 0-2.049-5.131-5.183-5.131-1.205 0-2.199.785-2.199 2.143 0 2.445 2.983 4.799 7.08 4.799 5.815 0 8.557-4.769 8.557-11.44 0-6.339-3.374-10.595-8.316-10.595zm.573 12.135c-2.441 0-3.857-3.683-3.857-6.762 0-2.264 1.055-3.562 2.652-3.562 2.561 0 3.886 3.351 4.218 7.124-.06 1.902-1.145 3.2-3.013 3.2zm26.17 9.9c4.912 0 8.286-3.018 8.286-8.421v-10.415c0-1.267 1.296-1.539 1.296-2.294v-.12c0-.302-.271-.483-.693-.483h-3.435c-.392 0-.693.181-.693.483v.12c0 .755 1.205 1.027 1.205 2.294v10.354c0 4.89-2.712 6.52-4.971 6.52-3.345 0-5.363-2.264-5.363-6.52v-10.354c0-1.267 1.295-1.539 1.295-2.294v-.12c0-.302-.271-.483-.693-.483h-5.664c-.422 0-.693.181-.693.483v.12c0 .755 1.175 1.027 1.175 2.294v10.354c0 5.464 3.676 8.482 8.948 8.482zm20.33 0c4.369 0 8.135-2.234 8.135-6.158 0-8.693-12.173-4.528-12.173-11.018 0-1.72 1.115-3.109 3.405-3.109 4.399 0 3.284 5.373 6.538 5.373 1.296 0 1.928-.724 1.928-1.871.031-2.506-3.314-5.222-8.376-5.222-4.971 0-7.984 2.656-7.984 6.278.03 8.935 12.203 4.528 12.203 10.958 0 1.841-1.386 3.048-3.496 3.048-5.091 0-4.278-5.493-7.291-5.554-1.235 0-1.808.785-1.808 1.842 0 2.414 3.194 5.433 8.919 5.433zm11.118-.302h8.286c6.87 0 11.6-4.226 11.6-10.685 0-6.188-5.032-10.746-13.016-10.746h-6.87c-.421 0-.693.181-.693.483v.12c0 .755 1.176 1.027 1.176 2.294v15.637c0 1.267-1.176 1.539-1.176 2.294v.09c0 .332.272.513.693.513zm7.202-1.841c-1.386 0-2.23-.936-2.23-2.596v-13.885c0-.966.542-1.268 1.205-1.268h.573c4.79 0 8.406 4.89 8.406 10.837 0 4.437-2.742 6.912-6.418 6.912h-1.536zM49.264 51.881h-1.695v-11.98h-4.2v-1.49h10.075v1.49h-4.18v11.98zM57.56 41.6c1.23 0 2.141.27 2.731.81.59.542.885 1.403.885 2.586v6.886h-1.205l-.32-1.434h-.076c-.439.553-.904.962-1.393 1.226-.477.264-1.143.396-1.996.396-.917 0-1.676-.239-2.279-.717-.602-.49-.904-1.251-.904-2.282 0-1.007.396-1.78 1.187-2.321.79-.553 2.008-.855 3.653-.906l1.714-.056v-.604c0-.842-.182-1.427-.547-1.754-.363-.327-.878-.49-1.544-.49-.527 0-1.03.08-1.506.244a9.88 9.88 0 00-1.337.529l-.509-1.246c.44-.239.96-.44 1.563-.603a6.679 6.679 0 011.883-.264zm.49 5.395c-1.255.05-2.128.252-2.617.604-.477.352-.716.849-.716 1.49 0 .566.17.981.508 1.246.352.264.798.396 1.337.396.854 0 1.563-.233 2.128-.698.565-.478.848-1.208.848-2.189v-.905l-1.488.056zm7.882-1.962c0 .201-.013.466-.038.793-.012.327-.025.61-.037.849h.075c.075-.101.188-.246.339-.434l.452-.566c.163-.201.301-.365.414-.49l3.22-3.416h1.94l-4.087 4.32 4.37 5.793h-1.997l-3.502-4.717-1.15 1v3.717h-1.637V37.544h1.638v7.49zM78.25 41.58c.867 0 1.608.19 2.223.567a3.63 3.63 0 011.431 1.603c.339.68.508 1.478.508 2.396v1h-6.91c.025 1.145.313 2.019.866 2.622.565.592 1.35.887 2.354.887.64 0 1.205-.056 1.694-.17a10.2 10.2 0 001.545-.528v1.453a7.408 7.408 0 01-1.526.49c-.502.114-1.098.17-1.789.17-.954 0-1.801-.195-2.542-.585-.728-.39-1.3-.968-1.714-1.736-.401-.78-.602-1.729-.602-2.848 0-1.107.182-2.057.546-2.849.377-.792.897-1.402 1.563-1.83.678-.428 1.462-.641 2.354-.641zm-.018 1.359c-.79 0-1.419.258-1.883.773-.452.503-.722 1.208-.81 2.113h5.141c-.013-.855-.213-1.547-.603-2.075-.389-.54-1.004-.811-1.845-.811zM93.697 41.6c1.23 0 2.14.27 2.73.81.59.542.885 1.403.885 2.586v6.886h-1.205l-.32-1.434h-.076c-.44.553-.904.962-1.393 1.226-.477.264-1.142.396-1.996.396-.917 0-1.676-.239-2.279-.717-.602-.49-.904-1.251-.904-2.282 0-1.007.396-1.78 1.187-2.321.79-.553 2.008-.855 3.653-.906l1.713-.056v-.604c0-.842-.181-1.427-.546-1.754-.364-.327-.878-.49-1.544-.49-.527 0-1.03.08-1.506.244a9.77 9.77 0 00-1.337.529l-.509-1.246c.44-.239.96-.44 1.563-.603a6.678 6.678 0 011.883-.264zm.489 5.395c-1.255.05-2.128.252-2.617.604-.478.352-.716.849-.716 1.49 0 .566.17.981.509 1.246.35.264.797.396 1.336.396.854 0 1.563-.233 2.128-.698.565-.478.848-1.208.848-2.189v-.905l-1.488.056zm9.821 5.075c-1.255 0-2.259-.434-3.013-1.301-.753-.88-1.13-2.189-1.13-3.925 0-1.735.377-3.043 1.13-3.924.766-.893 1.777-1.34 3.032-1.34.779 0 1.413.145 1.902.435.502.289.911.641 1.224 1.056h.113a18.425 18.425 0 00-.075-.717 10.24 10.24 0 01-.038-.773v-4.038h1.657v14.339h-1.337l-.245-1.359h-.075a3.91 3.91 0 01-1.205 1.094c-.502.302-1.149.453-1.94.453zm.264-1.377c1.067 0 1.814-.29 2.241-.868.44-.591.659-1.478.659-2.66v-.302c0-1.257-.207-2.22-.621-2.886-.415-.68-1.18-1.019-2.298-1.019-.891 0-1.563.358-2.015 1.075-.439.705-.659 1.654-.659 2.85 0 1.206.22 2.143.659 2.81.452.667 1.13 1 2.034 1zm9.966 1.188l-3.822-10.112h1.77l2.147 5.962c.099.276.207.584.32.924.113.34.212.667.301.981.088.302.151.56.188.774h.076c.05-.214.118-.478.207-.793.1-.314.207-.641.32-.98.125-.34.232-.642.32-.906l2.147-5.962h1.77l-3.842 10.112h-1.902zM125.401 41.6c1.23 0 2.14.27 2.73.81.59.542.885 1.403.885 2.586v6.886h-1.205l-.32-1.434h-.076c-.439.553-.903.962-1.393 1.226-.477.264-1.142.396-1.996.396-.916 0-1.676-.239-2.279-.717-.602-.49-.904-1.251-.904-2.282 0-1.007.396-1.78 1.187-2.321.791-.553 2.008-.855 3.653-.906l1.714-.056v-.604c0-.842-.182-1.427-.546-1.754-.365-.327-.879-.49-1.545-.49-.527 0-1.029.08-1.506.244a9.86 9.86 0 00-1.337.529l-.509-1.246c.44-.239.961-.44 1.563-.603a6.686 6.686 0 011.884-.264zm.489 5.395c-1.255.05-2.128.252-2.617.604-.478.352-.716.849-.716 1.49 0 .566.17.981.508 1.246.352.264.798.396 1.337.396.854 0 1.563-.233 2.128-.698.565-.478.848-1.208.848-2.189v-.905l-1.488.056zm11.102-5.415c1.205 0 2.116.296 2.731.887.614.579.922 1.522.922 2.83v6.584h-1.638v-6.47c0-1.623-.753-2.434-2.26-2.434-1.117 0-1.89.314-2.316.943-.427.629-.64 1.534-.64 2.717v5.244h-1.657V41.77h1.337l.244 1.377h.095a2.93 2.93 0 011.355-1.17 4.344 4.344 0 011.827-.395zm10.153 9.132c.251 0 .508-.02.772-.057.264-.05.477-.1.64-.15v1.263c-.175.088-.426.157-.753.208-.326.063-.64.094-.942.094a4.007 4.007 0 01-1.468-.264c-.439-.189-.797-.51-1.074-.962-.276-.453-.414-1.088-.414-1.906v-5.886h-1.431v-.792l1.45-.66.659-2.151h.979v2.32h2.919v1.283h-2.919v5.849c0 .616.145 1.075.433 1.377.301.29.685.434 1.149.434zm7.256-9.112c1.23 0 2.141.27 2.731.81.589.542.885 1.403.885 2.586v6.886h-1.205l-.32-1.434h-.076c-.439.553-.903.962-1.393 1.226-.477.264-1.143.396-1.996.396-.917 0-1.676-.239-2.279-.717-.602-.49-.904-1.251-.904-2.282 0-1.007.396-1.78 1.187-2.321.791-.553 2.008-.855 3.653-.906l1.714-.056v-.604c0-.842-.183-1.427-.547-1.754-.364-.327-.879-.49-1.544-.49-.527 0-1.03.08-1.506.244a9.72 9.72 0 00-1.337.529l-.509-1.246c.439-.239.961-.44 1.563-.603a6.68 6.68 0 011.883-.264zm.49 5.395c-1.256.05-2.128.252-2.617.604-.478.352-.716.849-.716 1.49 0 .566.169.981.508 1.246.352.264.797.396 1.337.396.853 0 1.563-.233 2.128-.698.565-.478.848-1.208.848-2.189v-.905l-1.488.056zm9.821-5.415c.665 0 1.262.126 1.789.378.54.252.998.635 1.375 1.15h.094l.226-1.339h1.318v10.282c0 1.447-.371 2.535-1.111 3.264-.728.73-1.864 1.094-3.408 1.094-1.482 0-2.693-.214-3.635-.641V54.24c.992.528 2.235.792 3.729.792.866 0 1.544-.258 2.034-.773.502-.504.753-1.195.753-2.076v-.396c0-.15.006-.365.019-.641a8.9 8.9 0 01.038-.604h-.076c-.678 1.019-1.72 1.528-3.126 1.528-1.306 0-2.329-.46-3.069-1.377-.729-.918-1.092-2.201-1.092-3.849 0-1.61.363-2.886 1.092-3.83.74-.956 1.757-1.433 3.05-1.433zm.226 1.397c-.841 0-1.494.34-1.958 1.018-.465.667-.697 1.623-.697 2.868 0 1.245.226 2.201.678 2.868.464.654 1.136.98 2.015.98 1.017 0 1.757-.27 2.222-.81.464-.554.697-1.44.697-2.66v-.397c0-1.383-.239-2.37-.716-2.962-.477-.603-1.224-.905-2.241-.905zm11.68-1.397c.866 0 1.607.19 2.222.567a3.624 3.624 0 011.431 1.603c.339.68.508 1.478.508 2.396v1h-6.911c.026 1.145.315 2.019.866 2.622.565.592 1.351.887 2.354.887.641 0 1.206-.056 1.695-.17a10.153 10.153 0 001.544-.528v1.453a7.374 7.374 0 01-1.525.49c-.502.114-1.098.17-1.789.17-.954 0-1.801-.195-2.542-.585-.728-.39-1.3-.968-1.714-1.736-.401-.78-.602-1.729-.602-2.848 0-1.107.182-2.057.546-2.849.376-.792.898-1.402 1.563-1.83.678-.428 1.463-.641 2.354-.641zm-.019 1.359c-.791 0-1.418.258-1.883.773-.452.503-.722 1.208-.81 2.113h5.141c-.012-.855-.213-1.547-.603-2.075-.389-.54-1.004-.811-1.845-.811zm20.417 3.867c0 1.673-.427 2.969-1.28 3.887-.842.918-1.984 1.377-3.427 1.377-.892 0-1.69-.201-2.392-.604-.691-.415-1.237-1.012-1.638-1.792-.402-.792-.603-1.748-.603-2.868 0-1.672.42-2.962 1.262-3.867.841-.906 1.983-1.358 3.427-1.358.916 0 1.719.207 2.411.622.702.403 1.248.994 1.638 1.773.401.768.602 1.711.602 2.83zm-7.626 0c0 1.195.231 2.145.697 2.85.476.69 1.229 1.037 2.259 1.037 1.017 0 1.764-.346 2.241-1.038.477-.704.716-1.654.716-2.849 0-1.194-.239-2.131-.716-2.81-.477-.68-1.23-1.02-2.26-1.02-1.03 0-1.776.34-2.24 1.02-.466.679-.697 1.616-.697 2.81zm14.904-3.754h-2.543v8.83h-1.657v-8.83h-1.77v-.774l1.77-.566v-.584c0-1.309.289-2.245.867-2.811.578-.579 1.381-.868 2.41-.868.402 0 .766.038 1.092.113.339.063.628.138.866.226l-.433 1.302c-.2-.063-.433-.126-.696-.189a3.476 3.476 0 00-.81-.094c-.552 0-.966.189-1.243.566-.264.365-.396.943-.396 1.736v.66h2.543v1.283zm15.488 3.754c0 1.673-.426 2.969-1.28 3.887-.841.918-1.983 1.377-3.427 1.377-.891 0-1.689-.201-2.392-.604-.69-.415-1.236-1.012-1.637-1.792-.402-.792-.603-1.748-.603-2.868 0-1.672.42-2.962 1.261-3.867.841-.906 1.984-1.358 3.427-1.358.917 0 1.72.207 2.41.622.704.403 1.25.994 1.64 1.773.401.768.601 1.711.601 2.83zm-7.626 0c0 1.195.232 2.145.696 2.85.478.69 1.231 1.037 2.26 1.037 1.017 0 1.765-.346 2.241-1.038.477-.704.716-1.654.716-2.849 0-1.194-.239-2.131-.716-2.81-.476-.68-1.23-1.02-2.26-1.02-1.029 0-1.775.34-2.241 1.02-.464.679-.696 1.616-.696 2.81zm18.69-5.037v10.112h-1.356l-.245-1.34h-.075a2.937 2.937 0 01-1.356 1.17 4.778 4.778 0 01-1.846.359c-1.217 0-2.134-.29-2.749-.868-.615-.591-.923-1.528-.923-2.811v-6.622h1.676v6.509c0 1.61.747 2.415 2.241 2.415 1.118 0 1.89-.315 2.316-.944.44-.629.659-1.534.659-2.716v-5.264h1.658zm7.912-.189a5.2 5.2 0 01.602.038c.226.013.421.038.584.076l-.207 1.528a5.49 5.49 0 00-1.092-.132c-.515 0-.998.144-1.45.434a3.035 3.035 0 00-1.093 1.188c-.263.503-.395 1.094-.395 1.774v5.395h-1.657V41.77h1.356l.188 1.85h.075a5.095 5.095 0 011.262-1.435c.515-.402 1.123-.603 1.827-.603zM40.73 69.88c1.142 0 1.995.295 2.56.886.565.579.848 1.522.848 2.83v6.584h-1.639v-6.509c0-1.597-.684-2.396-2.052-2.396-.98 0-1.683.283-2.11.85-.414.565-.62 1.39-.62 2.47v5.585h-1.64v-6.509c0-1.597-.69-2.396-2.07-2.396-1.017 0-1.72.315-2.11.944-.389.629-.583 1.534-.583 2.717v5.244h-1.658V70.068h1.337l.245 1.377h.094a2.9 2.9 0 011.262-1.17 3.85 3.85 0 011.714-.396c1.581 0 2.61.566 3.088 1.698h.094a3.146 3.146 0 011.375-1.283 4.34 4.34 0 011.864-.415zm15.3 5.225c0 1.673-.426 2.969-1.28 3.887-.841.918-1.983 1.377-3.427 1.377-.891 0-1.689-.201-2.392-.604-.69-.415-1.236-1.012-1.638-1.792-.402-.793-.602-1.748-.602-2.868 0-1.672.42-2.962 1.261-3.867.841-.906 1.984-1.359 3.427-1.359.917 0 1.72.208 2.41.623.704.403 1.25.994 1.64 1.773.4.768.602 1.71.602 2.83zm-7.626 0c0 1.195.232 2.145.697 2.849.477.692 1.23 1.038 2.26 1.038 1.017 0 1.763-.346 2.24-1.038.477-.704.716-1.654.716-2.849 0-1.195-.239-2.132-.715-2.81-.478-.68-1.23-1.02-2.26-1.02-1.03 0-1.777.34-2.241 1.02-.465.678-.697 1.615-.697 2.81zm15.112-5.225c1.205 0 2.115.295 2.73.886.615.579.923 1.522.923 2.83v6.584H65.53v-6.47c0-1.623-.754-2.434-2.26-2.434-1.118 0-1.89.314-2.316.943-.427.629-.64 1.534-.64 2.717v5.244h-1.658V70.068h1.337l.245 1.377h.094a2.93 2.93 0 011.356-1.17 4.342 4.342 0 011.827-.396zm10.152 9.13c.252 0 .509-.018.773-.056.263-.05.477-.1.64-.151v1.264c-.176.088-.427.157-.753.208a4.97 4.97 0 01-.942.094 4.011 4.011 0 01-1.469-.264c-.44-.189-.797-.51-1.073-.962-.276-.453-.414-1.088-.414-1.906v-5.886h-1.432v-.792l1.45-.66.66-2.151h.979v2.32h2.919v1.283h-2.92v5.848c0 .617.145 1.076.434 1.378.301.289.684.434 1.148.434zm5.092-8.96c0 .502-.032.974-.095 1.414h.113a3.125 3.125 0 011.318-1.17 4.258 4.258 0 011.827-.395c1.23 0 2.153.295 2.768.886.615.579.923 1.516.923 2.811v6.584h-1.639v-6.47c0-1.623-.753-2.434-2.26-2.434-1.13 0-1.908.32-2.334.962-.415.629-.622 1.534-.622 2.717v5.225h-1.657V65.842h1.657v4.207zM90.4 80.18h-1.657V65.842H90.4V80.18zm1.616-10.112h1.77l2.184 5.755c.189.503.358.987.509 1.452.15.453.263.887.339 1.302h.075c.075-.314.195-.723.358-1.226.164-.516.333-1.032.508-1.547l2.053-5.736h1.789l-4.35 11.509c-.352.956-.81 1.716-1.375 2.282-.552.566-1.318.85-2.297.85-.301 0-.565-.02-.791-.057a5.166 5.166 0 01-.584-.095v-1.32c.138.025.302.05.49.075.2.026.408.038.621.038.578 0 1.042-.163 1.394-.49.364-.328.646-.761.847-1.302l.527-1.34-4.067-10.15zm20.875-.188c1.243 0 2.241.433 2.994 1.301.766.868 1.149 2.176 1.149 3.924 0 1.723-.383 3.031-1.149 3.924-.753.893-1.758 1.34-3.013 1.34-.779 0-1.424-.145-1.939-.434-.502-.302-.898-.648-1.187-1.038h-.113c.026.214.05.484.075.812.026.327.038.61.038.849v4.15h-1.657v-14.64h1.356l.226 1.377h.075a3.88 3.88 0 011.187-1.113c.489-.302 1.142-.453 1.958-.453zm-.301 1.395c-1.029 0-1.758.29-2.185.868-.414.579-.633 1.46-.659 2.641v.321c0 1.245.201 2.208.603 2.887.414.666 1.174 1 2.278 1 .615 0 1.118-.17 1.507-.51.402-.34.697-.798.885-1.377.2-.591.301-1.264.301-2.019 0-1.157-.226-2.081-.678-2.773-.439-.692-1.123-1.038-2.052-1.038zm8.742 8.905h-1.657V65.842h1.657V80.18zm7.02-10.282c1.23 0 2.14.27 2.731.812.589.54.885 1.402.885 2.584v6.886h-1.205l-.32-1.433h-.076c-.439.553-.904.962-1.393 1.226-.478.264-1.143.396-1.996.396-.917 0-1.676-.239-2.279-.717-.603-.49-.904-1.251-.904-2.283 0-1.006.396-1.78 1.187-2.32.79-.554 2.008-.855 3.653-.906l1.713-.056v-.604c0-.843-.182-1.428-.546-1.755-.364-.327-.879-.49-1.544-.49a4.62 4.62 0 00-1.506.245 9.847 9.847 0 00-1.337.528l-.509-1.245c.439-.239.961-.44 1.563-.603a6.676 6.676 0 011.883-.265zm.49 5.396c-1.256.05-2.128.252-2.618.604-.477.352-.715.849-.715 1.49 0 .566.169.981.508 1.245.351.264.797.397 1.337.397.853 0 1.563-.233 2.128-.698.565-.478.848-1.208.848-2.189v-.906l-1.488.057zm11.102-5.414c1.205 0 2.115.295 2.73.886.615.579.923 1.522.923 2.83v6.584h-1.638v-6.47c0-1.623-.753-2.434-2.26-2.434-1.118 0-1.89.314-2.316.943-.428.629-.64 1.534-.64 2.717v5.244h-1.658V70.068h1.337l.245 1.377h.094a2.927 2.927 0 011.356-1.17 4.342 4.342 0 011.827-.396zm13.354 7.508c0 .981-.364 1.723-1.092 2.226-.728.503-1.707.755-2.938.755-.703 0-1.312-.057-1.827-.17a5.585 5.585 0 01-1.337-.472v-1.509c.402.201.885.39 1.45.566a6.402 6.402 0 001.752.245c.841 0 1.45-.132 1.826-.396.377-.276.565-.641.565-1.094a1.17 1.17 0 00-.207-.68c-.138-.2-.389-.402-.753-.603-.351-.201-.86-.427-1.525-.68a14.456 14.456 0 01-1.676-.754c-.465-.251-.822-.553-1.074-.905-.251-.352-.376-.805-.376-1.359 0-.855.345-1.515 1.035-1.98.704-.466 1.62-.699 2.75-.699.614 0 1.186.063 1.713.19.54.112 1.043.276 1.507.49l-.565 1.32a11.153 11.153 0 00-1.337-.453 5.454 5.454 0 00-1.431-.188c-.678 0-1.199.113-1.563.34-.352.213-.528.509-.528.886 0 .277.082.516.245.717.163.189.433.377.81.566.389.176.904.39 1.544.641a12.1 12.1 0 011.638.736c.452.252.798.56 1.036.925.238.352.358.798.358 1.34zm13.903 0c0 .981-.364 1.723-1.092 2.226-.729.503-1.708.755-2.938.755-.703 0-1.312-.057-1.827-.17a5.57 5.57 0 01-1.337-.472v-1.509c.402.201.886.39 1.45.566a6.402 6.402 0 001.752.245c.841 0 1.45-.132 1.826-.396.377-.276.565-.641.565-1.094 0-.252-.069-.478-.207-.68-.138-.2-.39-.402-.753-.603-.352-.201-.861-.427-1.525-.68a14.38 14.38 0 01-1.676-.754c-.465-.251-.823-.553-1.074-.905-.251-.352-.376-.805-.376-1.359 0-.855.344-1.515 1.035-1.98.703-.466 1.62-.699 2.75-.699.615 0 1.186.063 1.713.19.54.112 1.042.276 1.507.49l-.565 1.32a11.214 11.214 0 00-1.337-.453 5.46 5.46 0 00-1.431-.188c-.678 0-1.2.113-1.563.34-.352.213-.528.509-.528.886 0 .277.081.516.245.717.163.189.433.377.81.566.389.176.904.39 1.544.641.64.24 1.187.485 1.638.736.452.252.797.56 1.036.925.238.352.358.798.358 1.34zm5.809 1.622c.252 0 .509-.018.773-.056.263-.05.477-.1.64-.151v1.264c-.176.088-.427.157-.753.208a4.987 4.987 0 01-.942.094 4.013 4.013 0 01-1.469-.264c-.44-.189-.797-.51-1.073-.962-.276-.453-.414-1.088-.414-1.906v-5.886h-1.432v-.792l1.45-.66.659-2.151h.98v2.32h2.918v1.283h-2.918v5.848c0 .617.144 1.076.433 1.378.301.289.684.434 1.148.434zm7.257-9.112c1.23 0 2.14.27 2.731.812.589.54.885 1.402.885 2.584v6.886h-1.206l-.32-1.433h-.075c-.44.553-.904.962-1.394 1.226-.477.264-1.143.396-1.996.396-.917 0-1.676-.239-2.278-.717-.603-.49-.904-1.251-.904-2.283 0-1.006.395-1.78 1.186-2.32.791-.554 2.009-.855 3.653-.906l1.714-.056v-.604c0-.843-.183-1.428-.546-1.755-.364-.327-.879-.49-1.544-.49-.527 0-1.03.082-1.507.245a9.951 9.951 0 00-1.337.528l-.508-1.245c.439-.239.96-.44 1.563-.603a6.67 6.67 0 011.883-.265zm.49 5.396c-1.256.05-2.128.252-2.618.604-.477.352-.716.849-.716 1.49 0 .566.17.981.509 1.245.351.264.796.397 1.337.397.853 0 1.563-.233 2.128-.698.565-.478.847-1.208.847-2.189v-.906l-1.487.057zm10.95-5.414c.188 0 .39.012.603.037.226.013.42.038.583.076l-.207 1.528a5.39 5.39 0 00-1.092-.132c-.514 0-.998.144-1.45.434-.452.276-.815.672-1.092 1.188-.264.503-.396 1.094-.396 1.773v5.396h-1.657V70.068h1.356l.188 1.849h.076a5.091 5.091 0 011.261-1.434c.515-.402 1.125-.604 1.827-.604zm6.442 9.13c.252 0 .509-.018.772-.056.264-.05.478-.1.64-.151v1.264c-.176.088-.426.157-.753.208-.327.063-.64.094-.941.094a4.009 4.009 0 01-1.469-.264c-.44-.189-.798-.51-1.074-.962-.275-.453-.414-1.088-.414-1.906v-5.886h-1.431v-.792l1.45-.66.659-2.151h.979v2.32h2.919v1.283h-2.919v5.848c0 .617.144 1.076.433 1.378.302.289.685.434 1.149.434zm4.281-12.734c.251 0 .471.088.659.264.201.164.302.428.302.793 0 .352-.101.616-.302.792a.934.934 0 01-.659.264.98.98 0 01-.696-.264c-.189-.176-.283-.44-.283-.792 0-.365.094-.629.283-.793a.98.98 0 01.696-.264zm.81 3.792v10.113h-1.657V70.068h1.657zm8.056-.188c1.205 0 2.116.295 2.731.886.614.579.922 1.522.922 2.83v6.584h-1.638v-6.47c0-1.623-.753-2.434-2.26-2.434-1.117 0-1.889.314-2.316.943-.427.629-.64 1.534-.64 2.717v5.244h-1.657V70.068h1.337l.244 1.377h.095a2.93 2.93 0 011.355-1.17 4.346 4.346 0 011.827-.396zm10.36 0c.666 0 1.262.125 1.789.377.54.251.998.635 1.375 1.15h.094l.226-1.339h1.318V80.35c0 1.446-.37 2.534-1.111 3.264-.728.73-1.864 1.094-3.409 1.094-1.481 0-2.692-.214-3.634-.641v-1.528c.992.528 2.235.792 3.729.792.866 0 1.544-.258 2.033-.774.503-.503.754-1.195.754-2.075v-.396c0-.151.006-.365.018-.642.014-.289.026-.49.038-.603h-.075c-.678 1.019-1.719 1.528-3.126 1.528-1.305 0-2.329-.46-3.07-1.377-.727-.919-1.092-2.201-1.092-3.849 0-1.61.365-2.886 1.092-3.83.741-.956 1.758-1.434 3.051-1.434zm.226 1.395c-.841 0-1.493.34-1.958 1.02-.465.666-.697 1.622-.697 2.867 0 1.245.226 2.2.678 2.867.465.654 1.136.981 2.015.981 1.017 0 1.758-.27 2.222-.81.465-.554.696-1.44.696-2.66v-.397c0-1.383-.238-2.37-.715-2.962-.477-.604-1.224-.906-2.241-.906zm16.496-1.377c1.231 0 2.141.27 2.731.812.59.54.885 1.402.885 2.584v6.886h-1.205l-.321-1.433h-.075c-.439.553-.904.962-1.393 1.226-.477.264-1.142.396-1.996.396-.917 0-1.676-.239-2.279-.717-.603-.49-.904-1.251-.904-2.283 0-1.006.395-1.78 1.186-2.32.791-.554 2.01-.855 3.654-.906l1.713-.056v-.604c0-.843-.181-1.428-.546-1.755-.363-.327-.878-.49-1.544-.49-.527 0-1.029.082-1.506.245a9.86 9.86 0 00-1.337.528l-.509-1.245c.44-.239.96-.44 1.563-.603a6.68 6.68 0 011.883-.265zm.49 5.396c-1.255.05-2.128.252-2.618.604-.476.352-.715.849-.715 1.49 0 .566.169.981.508 1.245.352.264.798.397 1.337.397.854 0 1.563-.233 2.128-.698.565-.478.847-1.208.847-2.189v-.906l-1.487.057zm9.614 3.716c.251 0 .508-.018.772-.056.264-.05.477-.1.64-.151v1.264c-.175.088-.426.157-.753.208a4.97 4.97 0 01-.941.094 4.009 4.009 0 01-1.469-.264c-.439-.189-.797-.51-1.074-.962-.276-.453-.414-1.088-.414-1.906v-5.886h-1.431v-.792l1.45-.66.659-2.151h.979v2.32h2.919v1.283H246.9v5.848c0 .617.145 1.076.433 1.378.302.289.685.434 1.149.434zm3.189-7.923c0-.478.113-.811.339-1a1.22 1.22 0 01.81-.283c.325 0 .602.094.828.283.239.189.358.522.358 1 0 .453-.119.78-.358.981a1.203 1.203 0 01-.828.302c-.315 0-.584-.1-.81-.302-.226-.201-.339-.528-.339-.98zm0 8.075c0-.466.113-.793.339-.981a1.22 1.22 0 01.81-.283c.325 0 .602.094.828.283.239.188.358.515.358.98 0 .454-.119.78-.358.982a1.203 1.203 0 01-.828.302c-.315 0-.584-.101-.81-.302-.226-.201-.339-.528-.339-.981z" fill="#163A24"/><path d="M165.714 7.954C82.857 7.189-2.919 23.395 2.354 107.538c2.982 25.311 37.568 75.464 152.062 73.577 56.022 0 131.629-34.336 128.993-101.876-2.981-27.356 4.425-83.385-153.003-77.35-5.65.216-50.374 3.772-64.497 9.432-35.78 9.905-91.802 52.353-43.782 110.366 14.055 16.98 46.984 48.958 152.061 44.807 40.331-1.572 165.715-56.598 89.448-127.817-27.776-25.938-97.922-48.11-229.27-12.142" stroke="#FBC8B8" stroke-width="3"/></g><defs><clipPath id="clip0"><path fill="#fff" d="M0 0h290v183H0z"/></clipPath></defs></svg>